<svg width="1400" height="900" viewBox="0 0 1400 900" fill="none" xmlns="http://www.w3.org/2000/svg">
  <rect width="1400" height="900" fill="#0C0A06"/>
  <rect x="40" y="40" width="1320" height="820" rx="20" fill="#141007" stroke="#3A2D18" stroke-width="2"/>

  <rect x="80" y="90" width="1240" height="54" rx="10" fill="#1D170C"/>
  <circle cx="112" cy="117" r="8" fill="#F56A4A"/>
  <circle cx="140" cy="117" r="8" fill="#F9C24D"/>
  <circle cx="168" cy="117" r="8" fill="#53D769"/>
  <text x="210" y="124" fill="#D8C7AB" font-family="Arial" font-size="18">Sue The SousChef - One-pot Hainanese chicken rice - Step 3 of 7</text>
  <rect x="1090" y="102" width="190" height="30" rx="14" fill="#3A2112" stroke="#E8622A"/>
  <text x="1125" y="122" fill="#F8D6C8" font-family="Arial" font-size="14">Live Cooking</text>

  <rect x="80" y="166" width="820" height="650" rx="14" fill="#0F0D09" stroke="#2D2418"/>
  <rect x="100" y="192" width="640" height="96" rx="12" fill="#1E1810"/>
  <text x="122" y="228" fill="#F2E7D2" font-family="Arial" font-size="20">Step 3: Add chicken and stir for 2 minutes.</text>
  <text x="122" y="258" fill="#D0BEA0" font-family="Arial" font-size="18">Then pour stock and simmer gently for 20 minutes.</text>

  <rect x="180" y="312" width="560" height="88" rx="12" fill="#2B1B11" stroke="#E8622A"/>
  <text x="202" y="345" fill="#F9EDE3" font-family="Arial" font-size="18">Set a timer for 20 minutes for the simmer?</text>
  <rect x="204" y="360" width="96" height="28" rx="8" fill="#E8622A"/>
  <text x="238" y="379" fill="white" font-family="Arial" font-size="14">Start</text>

  <rect x="100" y="424" width="690" height="118" rx="12" fill="#17130E" stroke="#2A2116"/>
  <text x="122" y="455" fill="#F0E4D0" font-family="Arial" font-size="18">Assistant: I started a 20-minute simmer timer and tracked your step.</text>
  <text x="122" y="486" fill="#CDBDA0" font-family="Arial" font-size="17">Ask me for substitutions, next step, or dietary-safe swaps anytime.</text>
  <rect x="122" y="502" width="228" height="26" rx="7" fill="#244F4A"/>
  <text x="136" y="520" fill="#BDEAE3" font-family="Arial" font-size="13">Allergy-aware guidance active</text>

  <rect x="940" y="166" width="380" height="314" rx="14" fill="#15120C" stroke="#2D2418"/>
  <text x="968" y="202" fill="#F4E7D0" font-family="Arial" font-size="20">Active Recipes</text>
  <rect x="964" y="220" width="332" height="64" rx="10" fill="#20180F"/>
  <text x="980" y="248" fill="#EAD9BF" font-family="Arial" font-size="16">One-pot Hainanese chicken rice</text>
  <text x="980" y="270" fill="#AA9A7F" font-family="Arial" font-size="14">Step 3 / 7</text>

  <rect x="964" y="296" width="332" height="64" rx="10" fill="#20180F"/>
  <text x="980" y="324" fill="#EAD9BF" font-family="Arial" font-size="16">Taiwanese Beef Noodle Soup</text>
  <text x="980" y="346" fill="#AA9A7F" font-family="Arial" font-size="14">Step 4 / 9</text>

  <rect x="964" y="372" width="332" height="84" rx="10" fill="#20180F"/>
  <text x="980" y="400" fill="#EAD9BF" font-family="Arial" font-size="16">Sous Vide Miso Chicken</text>
  <text x="980" y="424" fill="#AA9A7F" font-family="Arial" font-size="14">Step 2 / 6</text>
  <rect x="1178" y="398" width="106" height="26" rx="8" fill="#3E2A17" stroke="#D4A040"/>
  <text x="1198" y="416" fill="#FFE2A5" font-family="Arial" font-size="13">Focused</text>

  <rect x="940" y="500" width="380" height="316" rx="14" fill="#15120C" stroke="#2D2418"/>
  <text x="968" y="536" fill="#F4E7D0" font-family="Arial" font-size="20">Active Timers</text>

  <rect x="964" y="554" width="332" height="58" rx="10" fill="#26190F" stroke="#E8622A"/>
  <text x="980" y="580" fill="#FFE9DD" font-family="Arial" font-size="16">Simmer broth</text>
  <text x="1180" y="580" fill="#FFB28E" font-family="Arial" font-size="16">18:44</text>

  <rect x="964" y="624" width="332" height="58" rx="10" fill="#1D160E"/>
  <text x="980" y="650" fill="#EFE0C9" font-family="Arial" font-size="16">Rice steam</text>
  <text x="1180" y="650" fill="#D4C39F" font-family="Arial" font-size="16">08:11</text>

  <rect x="964" y="694" width="332" height="58" rx="10" fill="#1D160E"/>
  <text x="980" y="720" fill="#EFE0C9" font-family="Arial" font-size="16">Steak rest</text>
  <text x="1180" y="720" fill="#D4C39F" font-family="Arial" font-size="16">05:09</text>

  <text x="100" y="842" fill="#7E6D53" font-family="Arial" font-size="16">Sample UI screenshot for landing page showcase</text>
</svg>
